<?xml version="1.0" encoding="UTF-8"?>
<svg viewBox="0 0 640 480" xmlns="http://www.w3.org/2000/svg">
 <defs>
  <filter id="b" x="-.11428" y="-.081955" width="1.2286" height="1.1639" color-interpolation-filters="sRGB">
   <feGaussianBlur stdDeviation="12.013053"/>
  </filter>
  <filter id="a" x="-.12524" y="-.14871" width="1.2505" height="1.2974" color-interpolation-filters="sRGB">
   <feGaussianBlur stdDeviation="4.906869"/>
  </filter>
 </defs>
 <g fill="#ad0718">
  <path d="m501.86 148.58c6.688-13.822-11.84-15.264-31.173-16.312-64.525-5.037-8.8085-37.461 5.6184-43.316-36 18.787-42.548 32.12-0.36249 36.429 36.389 1.839 44.139 9.7609 25.917 23.199z"/>
  <path d="m482.02 136.01c32.328-0.84982 47.815 17.515-14.158 34.412-48.9 16.203-67.87 32.325 1.3202 41.432 105.39 9.6128 53.024 36.422-20.116 49.422-74.246 15.498-79.603 31.23 15.327 41.651 128.32 15.59 46.471 46.459-29.219 52.597-123.27 5.9406-139.48 36.732 10.732 49.876 85.103 5.5266 166.64 12.909 133.62 34.754 40.578-27.897-40.955-35.279-126.06-40.806-150.22-13.144-134-43.935-10.732-49.876 75.691-6.1374 157.54-37.006 29.219-52.597-94.93-10.421-89.572-26.153-15.327-41.651 73.14-13.001 125.5-39.81 20.116-49.422-69.19-9.1068-50.22-25.229-1.3202-41.432 61.973-16.897 46.486-35.262 14.158-34.412-42.931-4.5251-54.829-14.968 1.5074-41.597-63.901 32.681-52.003 43.124-9.0723 47.649z" filter="url(#b)"/>
  <path d="m502.95 100.89l-16.186-11.836 5.8424 15.98-10.582-15.309-9.5135 16.222 5.3193-18.732-17.46 13.168 15.413-17.899-23.925-6.3766 24.807 1.2304-15.217-18.847 18.691 15.251-0.9468-23.608 5.6861 22.937 14.181-18.5-9.9872 21.009 23.267-9.5245-21.22 14.256 18.574 6.6043-19.456-1.4581 12.712 15.431z" filter="url(#a)" opacity=".408"/>
  <path d="m494.07 94.377l-9.6272-3.9165-8.4023 6.4695 0.4245-11.243-8.2118-6.7568 9.8896-3.0319 3.3271-10.645 5.6876 9.369 10.268 0.1776-6.3744 8.8222 3.0189 10.755z"/>
  <path d="m482.65 138.17l-6.8286-2.778-5.9597 4.5888 0.3011-7.9745-5.8246-4.7926 7.0146-2.1505 2.3599-7.5508 4.0342 6.6454 7.2831 0.1259-4.5214 6.2576 2.1413 7.6286z"/>
  <path d="m426.25 181.6c7.8743-7.0078 23.976-15.826 36.973-18.668 12.8-3.6829 25.753-7.0089 37.154-13.955-7.3124 8.082-21.668 13.912-34.436 17.58-15.052 3.7127-26.542 9.9472-39.692 15.043z"/>
  <path d="m425.52 182.32c-6.0652 3.8806-25.814 17.307 24.467 25.374 20.396 3.272 40.539 4.4064 58.722 9.062 11.68 3.5293 14.139 8.0278 11.962 14.862 4.0193-3.773 12.687-9.6877 7.6121-14.68-10.219-10.053-39.394-12.341-62.89-14.68-12.346-1.229-26.899-4.204-36.248-9.4244-4.0045-2.236-4.5971-6.6789-3.6248-10.512z"/>
  <path d="m460.68 250.11c21.046-4.184 41.176-10.201 59.809-19.211-9.5906 8.4907-25.508 16.756-61.984 24.286-22.732 4.045-34.664 5.4551-65.065 17.399 13.099-12.171 36.955-17.227 67.24-22.474z"/>
  <path d="m393.44 272.76c4.1274 16.897 52.556 17.318 78.658 21.93 83.377 12.203 58.618 27.312 51.472 31.354 8.241-15.364-33.344-20.22-58.178-24.83-22.943-2.972-46.361-3.8004-69.233-12.143-18.032-6.5773-7.3553-13.429-2.7186-16.312z"/>
  <path d="m338.89 366.83c13.53-14.913 53.799-15.933 88.445-19.936 32.652-3.7732 65.719-5.5821 96.057-20.48-13.968 15.439-53.721 22.349-93.157 25.917-31.687 2.8673-63.363 3.807-91.345 14.499z"/>
  <path d="m339.47 366.43c-9.6479 18.113 70.678 27.882 129.46 31.71 152.11 9.9055 111.74 32.391 104.33 38.738 31.05-23.807-57.026-26.899-111.2-32.527-47.068-4.8894-164.55-13.448-122.59-37.921z"/>
  <path d="m457.95 178.59l-6.8286-2.778-5.9597 4.5888 0.3011-7.9744-5.8246-4.7926 7.0146-2.1505 2.3599-7.5508 4.0342 6.6454 7.2831 0.1259-4.5214 6.2576 2.1413 7.6286z"/>
  <path d="m488.27 166.24l-6.8286-2.778-5.9597 4.5888 0.3011-7.9744-5.8246-4.7926 7.0146-2.1505 2.3599-7.5508 4.0342 6.6454 7.2831 0.1259-4.5214 6.2576 2.1413 7.6286z"/>
  <path d="m447.84 207.78l-6.8286-2.778-5.9597 4.5888 0.3011-7.9745-5.8246-4.7926 7.0146-2.1505 2.3599-7.5508 4.0342 6.6454 7.2831 0.126-4.5214 6.2576 2.1413 7.6286z"/>
  <path d="m475.91 213.4l-6.8286-2.778-5.9597 4.5888 0.3011-7.9745-5.8246-4.7926 7.0146-2.1505 2.36-7.5508 4.0342 6.6454 7.2831 0.1259-4.5214 6.2576 2.1413 7.6287z"/>
  <path d="m506.23 217.89l-6.8286-2.778-5.9597 4.5888 0.3011-7.9745-5.8246-4.7926 7.0146-2.1505 2.36-7.5508 4.0342 6.6454 7.2831 0.1259-4.5214 6.2575 2.1413 7.6287z"/>
  <path d="m435.33 266.46l-6.8286-2.778-5.9597 4.5888 0.3011-7.9745-5.8246-4.7926 7.0146-2.1505 2.3599-7.5508 4.0342 6.6454 7.2831 0.1259-4.5214 6.2576 2.1413 7.6286z"/>
  <path d="m470.78 259.24l-6.8286-2.778-5.9597 4.5888 0.3011-7.9745-5.8246-4.7926 7.0146-2.1505 2.36-7.5508 4.0342 6.6454 7.2831 0.126-4.5214 6.2576 2.1413 7.6286z"/>
  <path d="m502.95 249.4l-6.8286-2.778-5.9597 4.5888 0.3011-7.9745-5.8246-4.7926 7.0146-2.1505 2.36-7.5508 4.0342 6.6454 7.2831 0.1259-4.5213 6.2576 2.1413 7.6287z"/>
  <path d="m435.99 303.23l-6.8286-2.778-5.9597 4.5888 0.3011-7.9745-5.8246-4.7926 7.0146-2.1505 2.36-7.5508 4.0342 6.6454 7.2831 0.126-4.5213 6.2576 2.1413 7.6286z"/>
  <path d="m472.75 306.51l-6.8286-2.778-5.9597 4.5888 0.3011-7.9745-5.8246-4.7926 7.0146-2.1505 2.3599-7.5508 4.0342 6.6454 7.2831 0.126-4.5214 6.2576 2.1413 7.6286z"/>
  <path d="m508.2 310.45l-6.8286-2.778-5.9597 4.5888 0.3011-7.9745-5.8246-4.7926 7.0146-2.1505 2.36-7.5508 4.0342 6.6454 7.2831 0.126-4.5214 6.2576 2.1413 7.6286z"/>
  <path d="m387.41 362.31l-6.8286-2.778-5.9597 4.5888 0.3011-7.9744-5.8246-4.7926 7.0146-2.1505 2.3599-7.5508 4.0342 6.6454 7.2831 0.126-4.5214 6.2576 2.1413 7.6286z"/>
  <path d="m439.93 357.05l-6.8286-2.778-5.9597 4.5888 0.3011-7.9745-5.8246-4.7926 7.0146-2.1505 2.36-7.5508 4.0342 6.6454 7.2831 0.126-4.5214 6.2576 2.1413 7.6287z"/>
  <path d="m487.19 349.83l-6.8286-2.778-5.9597 4.5888 0.3011-7.9745-5.8246-4.7926 7.0146-2.1505 2.3599-7.5508 4.0342 6.6454 7.2831 0.126-4.5214 6.2576 2.1413 7.6286z"/>
  <path d="m399.89 401.69l-6.8286-2.778-5.9597 4.5887 0.3011-7.9745-5.8246-4.7926 7.0146-2.1505 2.36-7.5507 4.0342 6.6454 7.2831 0.1259-4.5213 6.2576 2.1413 7.6286z"/>
  <path d="m456.34 407.6l-6.8286-2.778-5.9597 4.5888 0.3011-7.9744-5.8246-4.7926 7.0146-2.1505 2.3599-7.5508 4.0342 6.6454 7.2831 0.126-4.5214 6.2576 2.1413 7.6286z"/>
  <path d="m508.86 412.85l-6.8286-2.778-5.9597 4.5888 0.3011-7.9745-5.8246-4.7926 7.0146-2.1505 2.36-7.5508 4.0342 6.6454 7.2831 0.126-4.5214 6.2576 2.1413 7.6286z"/>
  <path d="m564.65 420.73l-6.8286-2.778-5.9597 4.5888 0.3011-7.9745-5.8246-4.7926 7.0146-2.1505 2.3599-7.5508 4.0342 6.6454 7.2831 0.126-4.5214 6.2576 2.1414 7.6287z"/>
  <path d="m489.84 144.83l-11.219-8.2036 4.0495 11.076-7.3344-10.611-6.5939 11.244 3.6869-12.983-12.102 9.1267 10.683-12.406-16.583-4.4197 17.194 0.8528-10.547-13.063 12.955 10.571-0.6562-16.363 3.9412 15.898 9.8293-12.822-6.9222 14.562 16.126-6.6016-14.708 9.881 12.874 4.5775-13.485-1.0106 8.811 10.696z" filter="url(#a)" opacity=".408"/>
  <path d="m495.18 173.29l-11.219-8.2036 4.0494 11.076-7.3343-10.611-6.5939 11.244 3.6869-12.983-12.102 9.1267 10.683-12.406-16.583-4.4197 17.194 0.8528-10.547-13.063 12.955 10.571-0.6563-16.363 3.9412 15.898 9.8293-12.822-6.9223 14.562 16.126-6.6016-14.708 9.881 12.874 4.5775-13.485-1.0106 8.811 10.696z" filter="url(#a)" opacity=".408"/>
  <path d="m464.34 185.74l-11.219-8.2036 4.0495 11.076-7.3344-10.611-6.5939 11.244 3.6869-12.983-12.102 9.1267 10.683-12.406-16.583-4.4197 17.194 0.8528-10.547-13.063 12.955 10.571-0.6562-16.363 3.9412 15.898 9.8293-12.822-6.9223 14.562 16.126-6.6015-14.708 9.881 12.874 4.5775-13.485-1.0106 8.811 10.696z" filter="url(#a)" opacity=".408"/>
  <path d="m454.26 214.8l-11.219-8.2036 4.0495 11.076-7.3344-10.611-6.5939 11.244 3.6869-12.983-12.102 9.1267 10.683-12.406-16.582-4.4197 17.194 0.8528-10.547-13.063 12.955 10.571-0.6562-16.363 3.9412 15.898 9.8293-12.822-6.9222 14.562 16.126-6.6016-14.708 9.881 12.874 4.5775-13.485-1.0106 8.811 10.696z" filter="url(#a)" opacity=".408"/>
  <path d="m480.95 220.13l-11.219-8.2036 4.0495 11.076-7.3343-10.611-6.5939 11.244 3.6869-12.983-12.102 9.1267 10.683-12.406-16.583-4.4197 17.194 0.8528-10.547-13.063 12.955 10.571-0.6563-16.363 3.9412 15.898 9.8293-12.822-6.9222 14.562 16.126-6.6016-14.708 9.881 12.874 4.5775-13.485-1.0106 8.811 10.696z" filter="url(#a)" opacity=".408"/>
  <path d="m511.19 223.1l-11.219-8.2036 4.0494 11.076-7.3343-10.611-6.5939 11.244 3.6869-12.983-12.102 9.1267 10.683-12.406-16.583-4.4197 17.194 0.8528-10.547-13.063 12.955 10.571-0.6562-16.363 3.9412 15.898 9.8293-12.822-6.9223 14.562 16.126-6.6015-14.708 9.881 12.874 4.5775-13.485-1.0106 8.811 10.696z" filter="url(#a)" opacity=".408"/>
  <path d="m507.04 254.53l-11.219-8.2036 4.0495 11.076-7.3343-10.611-6.5939 11.244 3.6869-12.983-12.102 9.1267 10.683-12.406-16.583-4.4197 17.194 0.8528-10.547-13.063 12.955 10.571-0.6562-16.363 3.9412 15.898 9.8293-12.822-6.9223 14.562 16.126-6.6015-14.708 9.881 12.874 4.5775-13.485-1.0106 8.811 10.696z" filter="url(#a)" opacity=".408"/>
  <path d="m479.39 270.01l-11.219-8.2036 4.0495 11.076-7.3344-10.611-6.5939 11.244 3.6869-12.983-12.102 9.1267 10.683-12.406-16.583-4.4197 17.194 0.8528-10.547-13.063 12.955 10.571-0.6562-16.363 3.9411 15.898 9.8293-12.822-6.9223 14.562 16.126-6.6015-14.708 9.881 12.874 4.5775-13.485-1.0106 8.811 10.696z" filter="url(#a)" opacity=".408"/>
  <path d="m442.4 271.72l-11.219-8.2036 4.0494 11.076-7.3343-10.611-6.5939 11.244 3.6869-12.983-12.102 9.1267 10.683-12.406-16.582-4.4197 17.194 0.8528-10.547-13.063 12.955 10.571-0.6562-16.363 3.9411 15.898 9.8293-12.822-6.9222 14.562 16.126-6.6015-14.708 9.881 12.874 4.5775-13.485-1.0106 8.811 10.696z" filter="url(#a)" opacity=".408"/>
  <path d="m442.99 309.08l-11.219-8.2036 4.0494 11.076-7.3344-10.611-6.5939 11.244 3.6869-12.983-12.102 9.1267 10.683-12.406-16.582-4.4197 17.194 0.8528-10.547-13.063 12.955 10.571-0.6562-16.363 3.9411 15.898 9.8293-12.822-6.9222 14.562 16.126-6.6016-14.708 9.881 12.874 4.5775-13.485-1.0107 8.811 10.696z" filter="url(#a)" opacity=".408"/>
  <path d="m478.57 313.23l-11.219-8.2036 4.0494 11.076-7.3343-10.611-6.5939 11.244 3.6869-12.983-12.102 9.1267 10.683-12.406-16.583-4.4197 17.194 0.8528-10.547-13.063 12.955 10.571-0.6562-16.363 3.9412 15.898 9.8293-12.822-6.9223 14.562 16.126-6.6016-14.708 9.881 12.874 4.5775-13.485-1.0107 8.811 10.696z" filter="url(#a)" opacity=".408"/>
  <path d="m512.97 317.97l-11.219-8.2036 4.0494 11.076-7.3344-10.611-6.5939 11.244 3.6869-12.983-12.102 9.1267 10.683-12.406-16.583-4.4197 17.194 0.8528-10.547-13.063 12.955 10.571-0.6563-16.363 3.9412 15.898 9.8293-12.822-6.9223 14.562 16.126-6.6016-14.708 9.881 12.874 4.5775-13.485-1.0107 8.811 10.696z" filter="url(#a)" opacity=".408"/>
  <path d="m494.58 356.52l-11.219-8.204 4.05 11.076-7.334-10.611-6.594 11.244 3.686-12.983-12.102 9.127 10.684-12.407-16.583-4.419 17.194 0.852-10.547-13.062 12.955 10.571-0.656-16.364 3.941 15.898 9.829-12.822-6.922 14.562 16.127-6.602-14.708 9.881 12.874 4.578-13.486-1.011 8.811 10.696z" filter="url(#a)" opacity=".408"/>
  <path d="m447.74 364.23l-11.219-8.2037 4.0495 11.076-7.3344-10.611-6.5939 11.244 3.6869-12.983-12.102 9.1267 10.683-12.406-16.583-4.4197 17.194 0.8528-10.547-13.063 12.955 10.571-0.6562-16.363 3.9411 15.898 9.8293-12.822-6.9222 14.562 16.126-6.6016-14.708 9.881 12.874 4.5775-13.485-1.0107 8.811 10.696z" filter="url(#a)" opacity=".408"/>
  <path d="m394.96 369.56l-11.219-8.2037 4.0494 11.076-7.3343-10.611-6.5939 11.244 3.6869-12.983-12.102 9.1268 10.683-12.406-16.583-4.4197 17.194 0.8528-10.547-13.063 12.955 10.571-0.6562-16.363 3.9411 15.898 9.8293-12.822-6.9223 14.562 16.126-6.6016-14.708 9.881 12.874 4.5775-13.485-1.0106 8.811 10.696z" filter="url(#a)" opacity=".408"/>
  <path d="m405.64 407.51l-11.219-8.2036 4.0494 11.076-7.3343-10.611-6.5939 11.244 3.6869-12.983-12.102 9.1267 10.683-12.406-16.583-4.4197 17.194 0.8528-10.547-13.063 12.955 10.571-0.6562-16.363 3.9411 15.898 9.8293-12.822-6.9223 14.562 16.126-6.6016-14.708 9.881 12.874 4.5775-13.485-1.0106 8.811 10.696z" filter="url(#a)" opacity=".408"/>
  <path d="m461.97 414.63l-11.219-8.2037 4.0494 11.076-7.3344-10.611-6.5939 11.244 3.6869-12.983-12.102 9.1268 10.683-12.406-16.583-4.4197 17.194 0.8528-10.547-13.063 12.955 10.571-0.6562-16.363 3.9411 15.898 9.8293-12.822-6.9222 14.562 16.126-6.6016-14.708 9.881 12.874 4.5776-13.485-1.0107 8.811 10.696z" filter="url(#a)" opacity=".408"/>
  <path d="m514.74 418.78l-11.219-8.2036 4.0494 11.076-7.3343-10.611-6.5939 11.244 3.6869-12.983-12.102 9.1267 10.683-12.406-16.583-4.4197 17.194 0.8528-10.547-13.063 12.955 10.571-0.6562-16.363 3.9411 15.898 9.8293-12.822-6.9222 14.562 16.126-6.6016-14.708 9.881 12.874 4.5775-13.485-1.0106 8.811 10.696z" filter="url(#a)" opacity=".408"/>
  <path d="m568.7 427.67l-11.219-8.2037 4.0494 11.076-7.3344-10.611-6.5939 11.244 3.6869-12.983-12.102 9.1267 10.683-12.406-16.582-4.4197 17.194 0.8528-10.547-13.063 12.955 10.571-0.6562-16.363 3.9412 15.898 9.8293-12.822-6.9222 14.562 16.126-6.6016-14.708 9.881 12.874 4.5776-13.485-1.0107 8.811 10.696z" filter="url(#a)" opacity=".408"/>
  <path d="m502.95 100.89l-16.186-11.836 5.8424 15.98-10.582-15.309-9.5135 16.222 5.3193-18.732-17.46 13.168 15.413-17.899-23.925-6.3766 24.807 1.2304-15.217-18.847 18.691 15.251-0.9468-23.608 5.6861 22.937 14.181-18.5-9.9872 21.009 23.267-9.5245-21.22 14.256 18.574 6.6043-19.456-1.4581 12.712 15.431z" filter="url(#a)" opacity=".408"/>
 </g>
</svg>
